<svg version="1.1" id="Layer_1" xmlns="http://www.w3.org/2000/svg" xmlns:xlink="http://www.w3.org/1999/xlink" x="0px"
	y="0px" width="100%" viewBox="0 0 570 571" enable-background="new 0 0 570 571" xml:space="preserve">

	<path fill="#292C3A" opacity="1.000000" stroke="none" d="
M333.054382,386.150024
	C337.171234,400.345551 342.220428,414.348602 345.198914,428.779083
	C350.415649,454.053802 329.235565,480.780334 302.800232,481.167450
	C284.050385,481.442047 269.792694,474.425873 260.256073,458.549103
	C257.156586,453.388977 255.566055,447.251038 253.723846,441.421753
	C249.669113,428.591309 245.893784,415.672516 242.142365,402.089111
	C254.252762,394.444611 266.178833,387.419098 278.216919,380.590942
	C284.374176,377.098419 290.731812,373.959198 297.180481,370.975952
	C299.596405,372.338440 301.791016,373.482361 304.071930,374.415314
	C313.718750,378.361084 323.391266,382.244080 333.054382,386.150024
z" />
	<path fill="#0BB499" opacity="1.000000" stroke="none" d="
M361.062805,196.981003
	C372.854736,196.008102 384.644989,195.014694 396.439331,194.071823
	C401.530151,193.664841 406.625092,193.274628 411.725586,193.031967
	C420.312225,192.623398 428.909332,191.973862 437.493866,192.080887
	C453.345917,192.278519 465.539886,199.790421 473.862701,212.888809
	C486.562225,232.875214 482.396454,257.261688 465.153839,272.044067
	C458.665100,277.606964 450.634583,281.375397 443.289368,285.933594
	C440.108093,287.907837 436.882416,289.810486 433.333160,291.395660
	C432.934021,290.217926 433.120178,289.273773 432.785980,288.580383
	C429.292023,281.330444 425.717499,274.119293 422.149750,266.905090
	C422.008453,266.619385 421.759125,266.306763 421.481232,266.181000
	C417.728607,264.482941 416.377991,261.058838 414.554565,257.648102
	C407.946655,245.288010 400.843750,233.193420 393.997803,220.959396
	C390.532318,214.766373 387.732788,213.205017 381.525757,216.521912
	C370.133514,222.609680 359.154572,229.470840 347.663635,236.097153
	C340.507446,239.789261 333.691010,243.393784 326.887085,246.745728
	C326.902039,246.324600 326.904419,246.156021 327.103149,245.709351
	C329.111481,242.839691 330.959808,240.272644 332.729431,237.652481
	C341.853973,224.142258 350.958344,210.618408 360.316833,197.059647
	C360.730164,197.006989 360.896484,196.993988 361.062805,196.981003
z" />
	<path fill="#00EFC1" opacity="1.000000" stroke="none" d="
M361.130798,196.646332
	C360.896484,196.993988 360.730164,197.006989 360.011566,196.852203
	C357.028381,195.653290 354.540405,194.737228 352.178986,193.566086
	C347.776703,191.382812 343.350739,189.216721 339.118225,186.730881
	C335.477600,184.592667 331.170959,182.695709 328.810181,179.479828
	C325.247772,174.627121 321.324249,171.732254 315.394348,170.580383
	C312.656097,170.048492 310.323456,167.360947 307.841919,165.601395
	C306.468506,164.627579 305.213745,163.483826 303.824158,162.535904
	C300.760315,160.445877 296.403015,159.112564 294.825073,156.235565
	C292.064606,151.202515 287.841034,150.103943 283.166504,148.995834
	C290.804871,137.541031 298.069946,125.814880 306.158661,114.687469
	C323.438904,90.915543 356.355316,90.656967 375.228271,108.402687
	C391.796417,123.981224 393.612183,153.149841 378.990570,170.734634
	C373.314972,177.560410 368.979614,185.497955 363.991180,192.900360
	C363.173553,194.113708 362.135162,195.178314 361.130798,196.646332
z" />
	<path fill="#17706A" opacity="1.000000" stroke="none" d="
M415.843323,301.924377
	C425.844482,312.734924 435.721436,323.663910 445.881744,334.322815
	C456.037720,344.977112 462.094666,357.213379 460.943359,372.185150
	C459.346436,392.951385 445.253113,409.252167 424.851257,414.037811
	C411.234375,417.231934 399.194000,412.507721 387.078522,407.548187
	C380.683929,404.930511 374.234894,402.445923 367.846497,399.485474
	C370.589752,394.041595 373.819916,389.220337 375.906403,383.946564
	C382.228699,367.966766 387.814240,351.692230 394.285431,335.775909
	C397.461761,327.963593 401.790863,320.668518 397.297485,311.905579
	C403.667603,308.447632 409.755463,305.186005 415.843323,301.924377
z" />
	<path fill="#05D5AF" opacity="1.000000" stroke="none" d="
M215.987335,416.841003
	C207.725128,421.346008 199.857559,426.913940 191.126282,430.155487
	C165.554443,439.649139 138.251160,424.122772 131.295761,397.470825
	C128.794724,387.887268 129.215057,377.904907 134.148682,369.366486
	C141.536514,356.580688 150.201981,344.533142 158.650848,332.436707
	C160.283218,334.990753 161.429016,339.107666 162.923264,339.238251
	C168.167328,339.696686 171.635712,342.457031 175.399673,345.532410
	C178.833374,348.337891 182.910034,350.357971 186.710434,352.712738
	C190.639587,355.147400 194.660645,357.444122 198.495255,360.019012
	C209.067581,367.118225 219.537292,374.370514 230.132751,381.434570
	C231.118729,382.091919 232.709961,381.841400 233.930862,382.347656
	C232.585785,384.633453 231.312057,386.572754 230.077362,388.536560
	C224.440170,397.502533 217.494431,405.818726 215.987335,416.841003
z" />
	<path fill="#1D4F52" opacity="1.000000" stroke="none" d="
M181.887863,210.796295
	C180.128433,204.264938 178.456421,197.708481 176.590088,191.207809
	C173.392044,180.068558 169.479568,169.098328 166.927414,157.817230
	C161.617920,134.348175 178.844162,109.204399 202.394852,104.994751
	C218.990585,102.028290 233.245010,106.262581 244.962662,118.489250
	C248.977478,122.678482 252.824432,127.028595 256.678467,131.888641
	C251.211426,133.604095 248.934235,138.139969 245.910461,141.996246
	C242.978943,145.734909 239.759750,149.294357 236.341431,152.595474
	C228.880417,159.800629 221.256836,166.839844 213.614548,173.854111
	C208.153687,178.866241 202.602356,183.783096 196.993668,188.629349
	C194.688721,190.620941 193.675262,192.494934 195.460068,195.469406
	C198.167084,199.980789 200.562683,204.679016 202.729874,209.494720
	C196.583969,210.189285 190.798767,210.686996 184.623993,211.122849
	C183.452225,210.972763 182.670044,210.884521 181.887863,210.796295
z" />
	<path fill="#01E9BD" opacity="1.000000" stroke="none" d="
M283.024048,149.301956
	C287.841034,150.103943 292.064606,151.202515 294.825073,156.235565
	C296.403015,159.112564 300.760315,160.445877 303.824158,162.535904
	C305.213745,163.483826 306.468506,164.627579 307.841919,165.601395
	C310.323456,167.360947 312.656097,170.048492 315.394348,170.580383
	C321.324249,171.732254 325.247772,174.627121 328.810181,179.479828
	C331.170959,182.695709 335.477600,184.592667 339.118225,186.730881
	C343.350739,189.216721 347.776703,191.382812 352.178986,193.566086
	C354.540405,194.737228 357.028381,195.653290 359.764526,196.891876
	C350.958344,210.618408 341.853973,224.142258 332.729431,237.652481
	C330.959808,240.272644 329.111481,242.839691 326.690125,245.712402
	C323.983307,245.671799 321.485779,245.973679 319.853516,244.926682
	C309.585663,238.340363 299.500458,231.468536 289.374481,224.661957
	C282.804932,220.245941 276.077911,216.032806 269.771240,211.265976
	C263.512054,206.535034 255.738831,203.467072 251.975769,195.515549
	C253.610718,192.706055 255.197922,190.235748 256.816193,187.785950
	C264.230713,176.561417 271.653931,165.342621 279.074036,154.121780
	C280.343231,152.617203 281.612427,151.112640 283.024048,149.301956
z" />
	<path fill="#04DAB3" opacity="1.000000" stroke="none" d="
M234.020172,382.012421
	C232.709961,381.841400 231.118729,382.091919 230.132751,381.434570
	C219.537292,374.370514 209.067581,367.118225 198.495255,360.019012
	C194.660645,357.444122 190.639587,355.147400 186.710434,352.712738
	C182.910034,350.357971 178.833374,348.337891 175.399673,345.532410
	C171.635712,342.457031 168.167328,339.696686 162.923264,339.238251
	C161.429016,339.107666 160.283218,334.990753 158.966827,332.294312
	C161.248596,328.155334 163.541168,324.423798 166.243744,320.221130
	C170.472488,314.207733 174.291214,308.665527 178.368164,302.910522
	C182.635773,297.073303 186.645157,291.448853 190.975540,286.011810
	C199.041153,291.470703 207.122467,296.315125 214.461349,302.101227
	C230.468887,314.721863 247.275665,326.075073 264.955383,336.390991
	C254.590836,351.826294 244.305511,366.919373 234.020172,382.012421
z" />
	<path fill="#119180" opacity="1.000000" stroke="none" d="
M178.109955,303.123322
	C174.291214,308.665527 170.472488,314.207733 166.343674,319.883972
	C157.738632,316.992737 149.328552,314.245514 141.177689,310.872040
	C130.895554,306.616394 120.148636,302.931610 110.798447,297.086884
	C88.722275,283.287201 84.451492,252.317108 100.614693,231.798798
	C110.060738,219.807587 122.382019,214.340988 137.352676,213.960129
	C139.957581,213.893845 142.550507,213.357834 145.490051,213.466522
	C145.683243,214.541824 145.363815,215.202591 145.412415,215.835068
	C146.887115,235.028397 148.478104,254.213226 149.859192,273.413147
	C150.332199,279.989105 150.562851,286.607971 150.413132,293.196075
	C150.262192,299.838470 151.526627,301.646912 157.959030,302.009918
	C164.675552,302.388977 171.392944,302.752808 178.109955,303.123322
z" />
	<path fill="#0AB99C" opacity="1.000000" stroke="none" d="
M416.037476,301.627655
	C409.755463,305.186005 403.667603,308.447632 397.036499,311.979980
	C395.990448,312.453644 395.487671,312.656616 394.977203,312.486542
	C394.417755,310.404114 394.136261,308.541748 393.269714,307.010529
	C388.236816,298.117249 383.044678,289.314240 377.947937,280.456818
	C371.958649,270.048187 366.332550,259.411835 359.909271,249.279755
	C356.761780,244.314819 354.820740,237.843369 348.003326,236.009583
	C359.154572,229.470840 370.133514,222.609680 381.525757,216.521912
	C387.732788,213.205017 390.532318,214.766373 393.997803,220.959396
	C400.843750,233.193420 407.946655,245.288010 414.554565,257.648102
	C416.377991,261.058838 417.728607,264.482941 421.481232,266.181000
	C421.759125,266.306763 422.008453,266.619385 422.149750,266.905090
	C425.717499,274.119293 429.292023,281.330444 432.785980,288.580383
	C433.120178,289.273773 432.934021,290.217926 432.991272,291.438507
	C427.405975,294.997864 421.818817,298.164398 416.037476,301.627655
z" />
	<path fill="#16776E" opacity="1.000000" stroke="none" d="
M394.984894,312.859558
	C395.487671,312.656616 395.990448,312.453644 396.754211,312.176300
	C401.790863,320.668518 397.461761,327.963593 394.285431,335.775909
	C387.814240,351.692230 382.228699,367.966766 375.906403,383.946564
	C373.819916,389.220337 370.589752,394.041595 367.527100,399.282715
	C356.026031,395.110748 344.880432,390.725800 333.394592,386.245422
	C323.391266,382.244080 313.718750,378.361084 304.071930,374.415314
	C301.791016,373.482361 299.596405,372.338440 297.296814,370.682800
	C303.534576,366.161438 309.837646,362.248871 316.476532,358.211487
	C330.225006,350.088654 343.637634,342.090637 357.416870,334.056763
	C370.183899,326.967102 382.584381,319.913330 394.984894,312.859558
z" />
	<path fill="#07C7A6" opacity="1.000000" stroke="none" d="
M316.140747,358.336304
	C309.837646,362.248871 303.534576,366.161438 297.115204,370.367157
	C290.731812,373.959198 284.374176,377.098419 278.216919,380.590942
	C266.178833,387.419098 254.252762,394.444611 242.110107,401.694214
	C233.521805,406.928314 225.103699,411.856598 216.336472,416.812958
	C217.494431,405.818726 224.440170,397.502533 230.077362,388.536560
	C231.312057,386.572754 232.585785,384.633453 233.930878,382.347656
	C244.305511,366.919373 254.590836,351.826294 265.218994,336.184814
	C270.591309,328.432526 275.578552,321.198669 280.667633,314.037140
	C283.342560,310.272919 286.195648,306.635315 288.976685,303.369812
	C289.322662,314.008423 297.569855,320.499542 301.103210,329.274597
	C303.317780,334.774445 308.136658,339.168121 311.005737,344.480103
	C313.323547,348.771454 314.472992,353.693848 316.140747,358.336304
z" />
	<path fill="#109583" opacity="1.000000" stroke="none" d="
M178.368164,302.910522
	C171.392944,302.752808 164.675552,302.388977 157.959030,302.009918
	C151.526627,301.646912 150.262192,299.838470 150.413132,293.196075
	C150.562851,286.607971 150.332199,279.989105 149.859192,273.413147
	C148.478104,254.213226 146.887115,235.028397 145.412415,215.835068
	C145.363815,215.202591 145.683243,214.541824 145.916611,213.530746
	C157.661545,212.427597 169.320984,211.687958 181.434143,210.872314
	C182.670044,210.884521 183.452225,210.972763 184.620880,211.558899
	C185.613739,222.589966 186.184357,233.125381 186.839005,243.655548
	C187.281555,250.773834 187.659897,257.903900 188.404663,264.993256
	C189.073624,271.361145 190.203323,277.680634 191.059448,284.324463
	C190.877579,285.026428 190.766068,285.425415 190.654556,285.824402
	C186.645157,291.448853 182.635773,297.073303 178.368164,302.910522
z" />
	<path fill="#1C5356" opacity="1.000000" stroke="none" d="
M278.770142,153.966400
	C271.653931,165.342621 264.230713,176.561417 256.816193,187.785950
	C255.197922,190.235748 253.610718,192.706055 251.680267,195.691376
	C248.933472,199.516800 246.515610,202.817764 243.668594,206.065521
	C229.856476,207.107483 216.473541,208.202682 203.090591,209.297882
	C200.562683,204.679016 198.167084,199.980789 195.460068,195.469406
	C193.675262,192.494934 194.688721,190.620941 196.993668,188.629349
	C202.602356,183.783096 208.153687,178.866241 213.614548,173.854111
	C221.256836,166.839844 228.880417,159.800629 236.341431,152.595474
	C239.759750,149.294357 242.978943,145.734909 245.910461,141.996246
	C248.934235,138.139969 251.211426,133.604095 256.832092,132.187469
	C264.192261,139.205582 271.329254,146.508301 278.770142,153.966400
z" />
	<path fill="#02E4BA" opacity="1.000000" stroke="none" d="
M244.097763,206.118744
	C246.515610,202.817764 248.933472,199.516800 251.646820,196.040009
	C255.738831,203.467072 263.512054,206.535034 269.771240,211.265976
	C276.077911,216.032806 282.804932,220.245941 289.374481,224.661957
	C299.500458,231.468536 309.585663,238.340363 319.853516,244.926682
	C321.485779,245.973679 323.983307,245.671799 326.493805,245.990494
	C326.904419,246.156021 326.902039,246.324600 326.629822,246.943802
	C323.203003,252.241501 320.046021,257.088593 316.624146,262.134827
	C310.568878,270.554810 304.778503,278.775635 298.544006,286.997131
	C291.947174,287.703705 286.662506,285.569916 281.846069,281.977600
	C274.048981,276.162231 266.429199,270.093567 258.444427,264.549713
	C249.857483,258.587708 240.682510,253.450867 232.283508,247.250397
	C228.844009,244.711243 223.840546,242.607864 224.050858,236.554901
	C230.802490,226.194000 237.450134,216.156372 244.097763,206.118744
z" />
	<path fill="#09BD9F" opacity="1.000000" stroke="none" d="
M316.889069,261.935669
	C320.046021,257.088593 323.203003,252.241501 326.617249,247.196350
	C333.691010,243.393784 340.507446,239.789261 347.663635,236.097168
	C354.820740,237.843369 356.761780,244.314819 359.909271,249.279755
	C366.332550,259.411835 371.958649,270.048187 377.947937,280.456818
	C383.044678,289.314240 388.236816,298.117249 393.269714,307.010529
	C394.136261,308.541748 394.417755,310.404114 394.977203,312.486511
	C382.584381,319.913330 370.183899,326.967102 357.258911,333.736816
	C347.838318,317.570007 338.925049,301.696808 330.053406,285.800415
	C325.626038,277.867401 321.274780,269.891937 316.889069,261.935669
z" />
	<path fill="#0F9A86" opacity="1.000000" stroke="none" d="
M243.668594,206.065521
	C237.450134,216.156372 230.802490,226.194000 223.782318,236.761139
	C212.649780,252.867584 201.889786,268.444519 191.129791,284.021454
	C190.203323,277.680634 189.073624,271.361145 188.404663,264.993256
	C187.659897,257.903900 187.281555,250.773834 186.839005,243.655548
	C186.184357,233.125381 185.613739,222.589966 185.010468,211.620758
	C190.798767,210.686996 196.583969,210.189285 202.729874,209.494720
	C216.473541,208.202682 229.856476,207.107483 243.668594,206.065521
z" />
	<path fill="#03E0B7" opacity="1.000000" stroke="none" d="
M191.059448,284.324463
	C201.889786,268.444519 212.649780,252.867584 223.678329,237.084412
	C223.840546,242.607864 228.844009,244.711243 232.283508,247.250397
	C240.682510,253.450867 249.857483,258.587708 258.444427,264.549713
	C266.429199,270.093567 274.048981,276.162231 281.846069,281.977600
	C286.662506,285.569916 291.947174,287.703705 298.399170,287.306793
	C295.455078,292.723999 292.211700,297.832275 288.968292,302.940521
	C286.195648,306.635315 283.342560,310.272919 280.667633,314.037140
	C275.578552,321.198669 270.591309,328.432526 265.298187,335.842560
	C247.275665,326.075073 230.468887,314.721863 214.461349,302.101227
	C207.122467,296.315125 199.041153,291.470703 190.975540,286.011810
	C190.766068,285.425415 190.877579,285.026428 191.059448,284.324463
z" />
	<path fill="#08C1A2" opacity="1.000000" stroke="none" d="
M288.976685,303.369812
	C292.211700,297.832275 295.455078,292.723999 298.843323,287.306091
	C304.778503,278.775635 310.568878,270.554810 316.624146,262.134827
	C321.274780,269.891937 325.626038,277.867401 330.053406,285.800415
	C338.925049,301.696808 347.838318,317.570007 356.892334,333.772705
	C343.637634,342.090637 330.225006,350.088654 316.476562,358.211487
	C314.472992,353.693848 313.323547,348.771454 311.005737,344.480103
	C308.136658,339.168121 303.317780,334.774445 301.103210,329.274597
	C297.569855,320.499542 289.322662,314.008423 288.976685,303.369812
z" />
</svg>